{"title":"Furious.Seven.2015.EXTENDED.1080p.BluRay.H264.AAC-RARBG","uid":12149480,"size":2876218548,"categoryP":"video","categoryS":"hd___movies","magnet":"?xt=urn:btih:4d0bc3c8c9f4eac6c2e89f2a8e5cbbee2ce08ec4&amp;dn=Furious.Seven.2015.EXTENDED.1080p.BluRay.H264.AAC-RARBG&amp;tr=udp%3A%2F%2Ftracker.openbittorrent.com%3A80&amp;tr=udp%3A%2F%2Fopen.demonii.com%3A1337&amp;tr=udp%3A%2F%2Ftracker.coppersurfer.tk%3A6969&amp;tr=udp%3A%2F%2Fexodus.desync.com%3A6969","seeders":0,"leechers":1,"uploader":"vickey1992","files":6,"time":1437574132,"description":"Video\nID                                       : 1\nFormat                                   : AVC\nFormat/Info                              : Advanced Video Codec\nFormat profile                           : &lt;a class=&quot;__cf_email__&quot; href=&quot;/cdn-cgi/l/email-protection&quot; data-cfemail=&quot;9bd3f2fcf3dbd7afb5aa&quot;&gt;[email&amp;#160;protected]&lt;/a&gt;&lt;script data-cfhash='f9e31' type=&quot;text/javascript&quot;&gt;\n/* &lt;![CDATA[ */!function(){try{var t=&quot;currentScript&quot;in document?document.currentScript:function(){for(var t=document.getElementsByTagName(&quot;script&quot;),e=t.length;e--;)if(t[e].getAttribute(&quot;data-cfhash&quot;))return t[e]}();if(t&amp;&amp;t.previousSibling){var e,r,n,i,c=t.previousSibling,a=c.getAttribute(&quot;data-cfemail&quot;);if(a){for(e=&quot;&quot;,r=parseInt(a.substr(0,2),16),n=2;a.length-n;n+=2)i=parseInt(a.substr(n,2),16)^r,e+=String.fromCharCode(i);e=document.createTextNode(e),c.parentNode.replaceChild(e,c)}t.parentNode.removeChild(t);}}catch(u){}}()/* ]]&gt; */&lt;/script&gt;\nFormat settings, CABAC                   : Yes\nFormat settings, ReFrames                : 4 frames\nCodec ID                                 : avc1\nCodec ID/Info                            : Advanced Video Coding\nDuration                                 : 2h 19mn\nBit rate                                 : 2 500 Kbps\nWidth                                    : 1 920 pixels\nHeight                                   : 800 pixels\nDisplay aspect ratio                     : 2.40:1\nFrame rate mode                          : Constant\nFrame rate                               : 23.976 fps\nColor space                              : YUV\nChroma subsampling                       : 4:2:0\nBit depth                                : 8 bits\nScan type                                : Progressive\nBits/(Pixel*Frame)                       : 0.068\nStream size                              : 2.44 GiB (92%)\nWriting library                          : x264 core 144 r2525M 40bb568\nEncoding settings                        : cabac=1 / ref=4 / deblock=1:-1:-1 / analyse=0x3:0x113 / me=umh / subme=9 / psy=1 / psy_rd=1.00:0.15 / mixed_ref=1 / me_range=24 / chroma_me=1 / trellis=2 / 8x8dct=1 / cqm=0 / deadzone=21,11 / fast_pskip=1 / chroma_qp_offset=-3 / threads=32 / lookahead_threads=4 / sliced_threads=0 / nr=0 / decimate=1 / interlaced=0 / bluray_compat=0 / constrained_intra=0 / bframes=3 / b_pyramid=2 / b_adapt=1 / b_bias=0 / direct=1 / weightb=1 / open_gop=0 / weightp=2 / keyint=250 / keyint_min=25 / scenecut=40 / intra_refresh=0 / rc_lookahead=50 / rc=2pass / mbtree=1 / bitrate=2500 / ratetol=1.0 / qcomp=0.60 / qpmin=0 / qpmax=69 / qpstep=4 / cplxblur=20.0 / qblur=0.5 / vbv_maxrate=31250 / vbv_bufsize=31250 / nal_hrd=none / filler=0 / ip_ratio=1.40 / aq=3:1.00\nEncoded date                             : UTC 1904-01-01 00:00:00\nTagged date                              : UTC 1904-01-01 00:00:00\n\nAudio\nID                                       : 2\nFormat                                   : AAC\nFormat/Info                              : Advanced Audio Codec\nFormat profile                           : LC\nCodec ID                                 : 40\nDuration                                 : 2h 19mn\nBit rate mode                            : Constant\nBit rate                                 : 224 Kbps\nChannel(s)                               : 2 channels\nChannel(s)_Original                      : 6 channels\nChannel positions                        : Front: L C R, Side: L R, LFE\nSampling rate                            : 48.0 KHz\nCompression mode                         : Lossy\nStream size                              : 224 MiB (8%)\nLanguage                                 : English\nEncoded date                             : UTC 1904-01-01 00:00:00\nTagged date                              : UTC 1904-01-01 00:00:00\n\nMenu #1\nID                                       : 3\nCodec ID                                 : text\nDuration                                 : 2h 19mn\nLanguage                                 : English\nEncoded date                             : UTC 1904-01-01 00:00:00\nTagged date                              : UTC 1904-01-01 00:00:00\nBit rate mode                            : CBR\n00:00:00.000                             : 00:00:00.000\n00:04:39.989                             : 00:04:39.946\n00:11:29.523                             : 00:11:29.480\n00:16:39.333                             : 00:16:39.290\n00:25:54.095                             : 00:25:54.052\n00:33:43.940                             : 00:33:43.897\n00:41:44.628                             : 00:41:44.585\n00:46:41.049                             : 00:46:41.006\n00:52:10.754                             : 00:52:10.711\n01:02:31.457                             : 01:02:31.414\n01:06:16.724                             : 01:06:16.681\n01:14:16.912                             : 01:14:16.869\n01:22:34.075                             : 01:22:34.032\n01:33:21.180                             : 01:33:21.137\n01:38:27.528                             : 01:38:27.485\n01:45:40.127                             : 01:45:40.084\n01:53:54.495                             : 01:53:54.452\n01:58:31.105                             : 01:58:31.062\n02:06:19.907                             : 02:06:19.864\n02:11:31.218                             : 02:11:31.175\n\nMenu #2\n00:00:00.043                             : 00:00:00.000\n00:04:39.989                             : 00:04:39.946\n00:11:29.523                             : 00:11:29.480\n00:16:39.333                             : 00:16:39.290\n00:25:54.095                             : 00:25:54.052\n00:33:43.940                             : 00:33:43.897\n00:41:44.628                             : 00:41:44.585\n00:46:41.049                             : 00:46:41.006\n00:52:10.754                             : 00:52:10.711\n01:02:31.457                             : 01:02:31.414\n01:06:16.724                             : 01:06:16.681\n01:14:16.912                             : 01:14:16.869\n01:22:34.075                             : 01:22:34.032\n01:33:21.180                             : 01:33:21.137\n01:38:27.528                             : 01:38:27.485\n01:45:40.127                             : 01:45:40.084\n01:53:54.495                             : 01:53:54.452\n01:58:31.105                             : 01:58:31.062\n02:06:19.907                             : 02:06:19.864\n02:11:31.218                             : 02:11:31.175","torrent":{"xt":"urn:btih:4d0bc3c8c9f4eac6c2e89f2a8e5cbbee2ce08ec4","amp;dn":"Furious.Seven.2015.EXTENDED.1080p.BluRay.H264.AAC-RARBG","amp;tr":["udp%3A%2F%2Ftracker.openbittorrent.com%3A80","udp%3A%2F%2Fopen.demonii.com%3A1337","udp%3A%2F%2Ftracker.coppersurfer.tk%3A6969","udp%3A%2F%2Fexodus.desync.com%3A6969"],"infoHash":"4d0bc3c8c9f4eac6c2e89f2a8e5cbbee2ce08ec4","infoHashBuffer":{"type":"Buffer","data":[77,11,195,200,201,244,234,198,194,232,159,42,142,92,187,238,44,224,142,196]},"announce":[],"urlList":[]}}